<svg xmlns="http://www.w3.org/2000/svg" viewBox="0 0 24 24" width="50px" height="50px">
  <path d="M 12.316406 1.0507812 L 10.861328 6.6953125 L 6.3808594 5.5371094 L 4.1152344 9.7089844 L 4.1132812 9.7109375 C 3.3574253 11.143934 3 12.995087 3 14.435547 C 3 18.82086 6.2304688 20.923828 6.2304688 20.923828 L 6.3535156 21.001953 L 23 21 L 23 20.003906 L 22.681641 19.878906 C 22.681641 19.878906 21.787035 19.535586 20.859375 18.578125 C 19.931715 17.620664 19 16.087751 19 13.640625 L 19 8.9101562 L 14.855469 7.7382812 L 16.314453 2.0800781 L 12.316406 1.0507812 z M 13.035156 2.2675781 L 15.097656 2.7988281 L 13.644531 8.4355469 L 18 9.6660156 L 18 12.900391 L 11.955078 11.339844 L 5.3007812 9.6191406 L 6.8867188 6.7011719 L 11.580078 7.9140625 L 13.035156 2.2675781 z M 4.8457031 10.535156 L 11.705078 12.308594 L 18.015625 13.9375 C 18.092549 16.475352 19.109203 18.20888 20.140625 19.273438 C 20.646619 19.795686 20.766744 19.752833 21.167969 20 L 12.611328 20.001953 C 12.417498 19.927222 9 18.564363 9 15 L 8 15 C 8 17.513493 9.4479534 19.096503 10.669922 20.001953 L 6.6875 20.001953 C 6.5334953 19.90172 4 18.223038 4 14.435547 C 4 13.282509 4.3050868 11.731535 4.8457031 10.535156 z" fill="#FFFFFF" />
</svg>