<svg xmlns="http://www.w3.org/2000/svg" viewBox="0 0 128 128" width="50px" height="50px">
  <path d="M64 49c-8.3 0-15 6.7-15 15s6.7 15 15 15 15-6.7 15-15S72.3 49 64 49zM64 73c-5 0-9-4-9-9s4-9 9-9 9 4 9 9S69 73 64 73zM39 64c0-1.7-1.3-3-3-3H11.5L22 50.6c1.2-1.2 1.2-3.1 0-4.2-1.2-1.2-3.1-1.2-4.2 0L2.2 61.9c-.6.6-.9 1.3-.9 2.1s.3 1.6.9 2.1l15.6 15.6c.6.6 1.4.9 2.1.9s1.5-.3 2.1-.9c1.2-1.2 1.2-3.1 0-4.2L11.5 67H36C37.7 67 39 65.7 39 64zM50.6 22L61 11.5V36c0 1.7 1.3 3 3 3s3-1.3 3-3V11.5L77.4 22c.6.6 1.4.9 2.1.9s1.5-.3 2.1-.9c1.2-1.2 1.2-3.1 0-4.2L66.1 2.2c-1.2-1.2-3.1-1.2-4.2 0L46.3 17.7c-1.2 1.2-1.2 3.1 0 4.2C47.5 23.1 49.4 23.1 50.6 22zM61.9 125.8c.6.6 1.4.9 2.1.9s1.5-.3 2.1-.9l15.6-15.6c1.2-1.2 1.2-3.1 0-4.2-1.2-1.2-3.1-1.2-4.2 0L67 116.5V92c0-1.7-1.3-3-3-3s-3 1.3-3 3v24.5L50.6 106c-1.2-1.2-3.1-1.2-4.2 0-1.2 1.2-1.2 3.1 0 4.2L61.9 125.8zM89 64c0 1.7 1.3 3 3 3h24.5L106 77.4c-1.2 1.2-1.2 3.1 0 4.2.6.6 1.4.9 2.1.9s1.5-.3 2.1-.9l15.6-15.6c.6-.6.9-1.3.9-2.1s-.3-1.6-.9-2.1l-15.6-15.6c-1.2-1.2-3.1-1.2-4.2 0-1.2 1.2-1.2 3.1 0 4.2L116.5 61H92C90.3 61 89 62.3 89 64z" fill="#FFFFFF" />
</svg>