<svg xmlns="http://www.w3.org/2000/svg" viewBox="0 0 24 24" width="50px" height="50px">
  <path d="M 12 2 A 2 2 0 0 0 10.269531 5.0019531 L 7.6621094 8.9257812 L 4.9746094 7.3085938 A 2 2 0 0 0 3 5 A 2 2 0 0 0 2.3007812 8.8730469 L 3.8027344 18.666016 C 4.0080947 20.002227 5.1686058 21 6.5214844 21 L 17.476562 21 C 18.829442 21 19.989953 20.002227 20.195312 18.666016 L 21.699219 8.8710938 A 2 2 0 0 0 21 5 A 2 2 0 0 0 19.025391 7.3066406 L 16.337891 8.9257812 L 13.730469 5 A 2 2 0 0 0 12 2 z M 11.457031 5.921875 A 2 2 0 0 0 12 6 A 2 2 0 0 0 12.542969 5.921875 L 15.486328 10.353516 A 0.750075 0.750075 0 0 0 16.498047 10.580078 L 19.794922 8.5957031 A 2 2 0 0 0 20.1875 8.8261719 L 19.316406 14.5 L 4.6835938 14.5 L 3.8125 8.8261719 A 2 2 0 0 0 4.203125 8.59375 L 7.5019531 10.580078 A 0.750075 0.750075 0 0 0 8.5136719 10.353516 L 11.457031 5.921875 z M 4.9140625 16 L 19.085938 16 L 18.712891 18.439453 C 18.618251 19.055242 18.099684 19.5 17.476562 19.5 L 6.5214844 19.5 C 5.8983629 19.5 5.3817491 19.055242 5.2871094 18.439453 L 4.9140625 16 z" fill="#FFFFFF" />
</svg>