<svg xmlns="http://www.w3.org/2000/svg" viewBox="0 0 24 24" width="50px" height="50px">
  <path d="M 3 3 L 3 3.5 L 3 21 L 21 21 L 21 18.878906 A 0.50005 0.50005 0 0 0 21 18.708984 L 21 3 L 3 3 z M 4 4 L 20 4 L 20 17.576172 L 13.998047 11.574219 L 11.998047 13.585938 L 9 10.587891 L 4 15.587891 L 4 4 z M 16 7 A 1 1 0 0 0 16 9 A 1 1 0 0 0 16 7 z M 9 12.001953 L 14.060547 17.0625 L 14.416016 17.416016 L 15.123047 16.708984 L 14.767578 16.355469 L 12.705078 14.292969 L 14 12.990234 L 20 18.990234 L 20 20 L 4 20 L 4 17.001953 L 4.0898438 16.912109 L 9 12.001953 z" fill="#FFFFFF" />
</svg>