<svg xmlns="http://www.w3.org/2000/svg" viewBox="0 0 26 26" width="50px" height="50px">
  <path d="M 0.8125 0 C 0.335938 0.0898438 -0.0078125 0.511719 0 1 L 0 25 C 0 25.550781 0.449219 26 1 26 L 16 26 C 16.550781 26 17 25.550781 17 25 L 17 20 L 15 20 L 15 24 L 2 24 L 2 2 L 15 2 L 15 6 L 17 6 L 17 1 C 17 0.449219 16.550781 0 16 0 L 1 0 C 0.96875 0 0.9375 0 0.90625 0 C 0.875 0 0.84375 0 0.8125 0 Z M 20.65625 8.0625 C 20.546875 8.058594 20.441406 8.070313 20.34375 8.125 C 20.144531 8.230469 20.03125 8.429688 20.03125 8.65625 L 20.03125 10.96875 C 20.03125 10.96875 9.78125 11.34375 9.5625 11.5 C 9.242188 11.726563 9.03125 12.386719 9.03125 13 C 9.03125 13.617188 9.242188 14.367188 9.5625 14.59375 C 9.78125 14.75 20.03125 15.03125 20.03125 15.03125 L 20.03125 17.34375 C 20.03125 17.570313 20.144531 17.769531 20.34375 17.875 C 20.542969 17.980469 20.78125 17.96875 20.96875 17.84375 C 23.390625 16.207031 25.726563 13.484375 25.8125 13.375 C 25.902344 13.265625 25.96875 13.136719 25.96875 13 C 25.96875 12.863281 25.902344 12.738281 25.8125 12.625 C 25.726563 12.515625 23.390625 9.792969 20.96875 8.15625 C 20.875 8.09375 20.765625 8.066406 20.65625 8.0625 Z" fill="#FFFFFF" />
</svg>