<svg xmlns="http://www.w3.org/2000/svg" viewBox="0 0 24 24" width="50px" height="50px">
  <path d="M 12 0 C 9.2447116 0 7 2.2447116 7 5 L 7 9.7636719 C 5.1736532 11.230933 4 13.479515 4 16 C 4 20.412355 7.5876417 24 12 24 C 16.412358 24 20 20.412355 20 16 C 20 13.479515 18.826347 11.230933 17 9.7636719 L 17 5 C 17 2.2447116 14.755288 0 12 0 z M 12 1 C 14.214712 1 16 2.7852884 16 5 L 16 9.0820312 C 14.821747 8.3982072 13.458065 8 12 8 C 10.541935 8 9.1782528 8.3982072 8 9.0820312 L 8 5 C 8 2.7852884 9.7852884 1 12 1 z M 12 9 C 13.538818 9 14.955206 9.4993938 16.109375 10.337891 A 0.50005 0.50005 0 0 0 16.3125 10.490234 C 16.312911 10.490556 16.314043 10.489913 16.314453 10.490234 C 17.948172 11.770595 19 13.758809 19 16 C 19 19.871916 15.871919 23 12 23 C 8.1280815 23 5 19.871916 5 16 C 5 13.758245 6.0530765 11.770559 7.6875 10.490234 A 0.50005 0.50005 0 0 0 7.8925781 10.335938 A 0.50005 0.50005 0 0 0 7.8964844 10.332031 C 9.0494622 9.4964606 10.464133 9 12 9 z M 12 13 A 1.75 1.75 0 0 0 11.25 16.330078 L 11.25 19 L 12.75 19 L 12.75 16.328125 A 1.75 1.75 0 0 0 12 13 z" fill="#FFFFFF" />
</svg>