<svg xmlns="http://www.w3.org/2000/svg" viewBox="0 0 48 48" width="50px" height="50px">
  <path d="M 32.478516 4 A 1.50015 1.50015 0 0 0 31.439453 4.4394531 L 24.039062 11.839844 L 16.126953 13.96875 C 13.123705 14.776897 10.795906 17.168434 10.070312 20.193359 L 6.1835938 36.390625 C 5.8500948 37.77946 6.3095319 39.068152 7.0996094 40.087891 A 1.50015 1.50015 0 0 0 7.3378906 40.482422 A 1.50015 1.50015 0 0 0 7.3398438 40.484375 C 7.3998967 40.547795 7.4560552 40.602117 7.5195312 40.662109 A 1.50015 1.50015 0 0 0 7.9140625 40.902344 C 8.9334803 41.690984 10.221769 42.14961 11.609375 41.816406 L 27.804688 37.927734 C 30.829332 37.202208 33.22021 34.876494 34.029297 31.873047 L 36.160156 23.960938 L 43.560547 16.560547 A 1.50015 1.50015 0 0 0 43.560547 14.439453 L 33.560547 4.4394531 A 1.50015 1.50015 0 0 0 32.478516 4 z M 32.5 7.6210938 L 40.378906 15.5 L 37.5 18.378906 L 29.621094 10.5 L 32.5 7.6210938 z M 27.5 12.621094 L 35.378906 20.5 L 33.753906 22.123047 A 1.50015 1.50015 0 0 0 33.367188 22.792969 L 31.132812 31.09375 C 30.607899 33.042303 29.066824 34.541245 27.105469 35.011719 L 11.322266 38.798828 L 22.146484 27.974609 A 2.5 2.5 0 0 0 22.5 28 A 2.5 2.5 0 0 0 22.5 23 A 2.5 2.5 0 0 0 20.027344 25.851562 L 9.1972656 36.681641 L 12.988281 20.894531 C 13.458687 18.933457 14.959498 17.391041 16.90625 16.867188 L 25.205078 14.632812 A 1.50015 1.50015 0 0 0 25.876953 14.244141 L 27.5 12.621094 z" fill="#FFFFFF" />
</svg>